<?xml version="1.0" standalone="no"?>
<!DOCTYPE svg PUBLIC "-//W3C//DTD SVG 20010904//EN"
 "http://www.w3.org/TR/2001/REC-SVG-20010904/DTD/svg10.dtd">
<svg version="1.0" xmlns="http://www.w3.org/2000/svg"
 width="700.000000pt" height="700.000000pt" viewBox="0 0 700.000000 700.000000"
 preserveAspectRatio="xMidYMid meet">
<metadata>
Created by potrace 1.11, written by Peter Selinger 2001-2013
</metadata>
<g transform="translate(0.000000,700.000000) scale(0.100000,-0.100000)"
fill="#000000" stroke="none">
<path d="M5144 6708 c-48 -41 -345 -336 -400 -398 -57 -66 -115 -135 -207
-250 -22 -27 -132 -174 -150 -200 -74 -108 -197 -298 -238 -370 -18 -30 -37
-61 -43 -69 -21 -26 -116 -206 -210 -396 -107 -217 -186 -399 -275 -635 -35
-91 -67 -174 -71 -185 -14 -32 -128 -385 -144 -445 -8 -30 -28 -102 -44 -160
-54 -190 -141 -548 -165 -680 -3 -14 -15 -77 -27 -140 -12 -63 -24 -128 -27
-145 -2 -16 -11 -66 -18 -110 -8 -44 -17 -93 -19 -110 -2 -16 -8 -50 -12 -75
-4 -25 -8 -55 -10 -67 -1 -12 -5 -34 -8 -50 -3 -15 -8 -53 -11 -84 -3 -31 -7
-66 -9 -76 -3 -11 -7 -44 -11 -74 -3 -30 -10 -88 -15 -129 -5 -41 -12 -101
-15 -132 -3 -32 -7 -82 -10 -110 -20 -210 -20 -213 -40 -553 -2 -22 -3 -73 -4
-114 -2 -116 -10 -87 -26 94 -4 39 -8 81 -10 95 -2 14 -7 48 -10 75 -11 97
-25 209 -31 240 -2 11 -7 40 -10 65 -3 25 -8 54 -10 65 -2 11 -8 45 -14 75
-19 111 -29 166 -40 220 -16 75 -29 140 -35 170 -3 14 -25 104 -50 200 -25 96
-47 183 -50 193 -10 42 -60 203 -107 342 -151 451 -359 881 -592 1225 -74 109
-223 305 -278 366 -18 20 -44 48 -57 63 -80 89 -212 218 -312 306 -98 87 -317
242 -471 334 l-37 22 55 -128 c30 -70 59 -137 64 -148 15 -33 88 -219 150
-385 247 -664 482 -1519 595 -2165 2 -16 7 -41 10 -55 5 -27 50 -295 65 -395
5 -33 12 -85 16 -115 3 -30 8 -62 9 -70 2 -8 6 -42 9 -75 4 -33 9 -67 11 -75
2 -8 7 -55 10 -105 4 -49 8 -92 10 -95 2 -3 6 -50 10 -105 4 -55 10 -130 14
-167 4 -38 5 -68 1 -68 -3 0 -15 51 -27 113 -77 399 -258 810 -492 1122 -301
400 -712 689 -1230 866 -47 16 -86 27 -89 24 -2 -2 9 -21 26 -42 77 -99 256
-416 329 -588 173 -403 310 -891 359 -1275 3 -25 7 -52 10 -60 2 -8 6 -40 9
-70 3 -30 7 -71 10 -90 8 -65 15 -135 21 -230 3 -52 7 -115 9 -140 2 -25 4
-109 5 -187 l2 -143 26 -1 c34 0 5363 0 5377 0 7 1 11 48 13 124 3 146 11 296
27 492 5 57 8 81 21 178 7 60 43 287 49 317 3 14 7 36 10 50 2 14 9 48 15 75
6 28 12 59 14 71 2 11 9 38 15 60 5 21 24 93 41 159 118 448 330 930 544 1235
25 35 44 66 42 67 -3 3 -171 -52 -201 -66 -11 -6 -56 -24 -100 -42 -94 -38
-309 -148 -313 -160 -2 -5 -8 -9 -13 -9 -15 0 -172 -105 -257 -173 -219 -173
-410 -386 -559 -624 -45 -72 -162 -300 -202 -393 -62 -145 -159 -484 -185
-645 -9 -57 7 206 18 300 3 22 8 67 11 100 3 33 8 83 12 110 3 28 7 57 8 65 1
8 5 44 9 80 4 36 11 90 16 120 6 30 12 75 15 100 6 46 9 66 25 160 5 30 12 71
15 90 7 46 25 148 31 180 2 14 13 72 24 130 11 58 22 114 24 125 3 11 17 74
31 140 15 66 28 127 30 135 3 15 53 223 59 250 90 358 291 1039 326 1102 6 10
10 22 10 28 0 27 226 615 305 793 29 64 49 117 44 117 -31 0 -370 -236 -504
-351 -158 -136 -380 -377 -521 -564 -325 -433 -598 -996 -782 -1615 -37 -123
-89 -313 -97 -350 -2 -8 -15 -67 -29 -130 -15 -63 -28 -124 -30 -135 -2 -11
-14 -67 -25 -125 -26 -126 -27 -133 -36 -190 -3 -25 -9 -58 -12 -75 -2 -16 -6
-39 -7 -50 -10 -70 -19 -133 -22 -150 -3 -11 -7 -46 -11 -77 -6 -60 -21 -82
-17 -25 5 59 13 191 19 287 3 52 7 115 10 140 2 25 7 79 10 120 3 41 8 98 11
125 7 74 13 132 19 205 3 36 8 81 10 100 2 19 7 60 10 90 3 30 8 71 10 90 3
19 7 58 10 85 3 28 8 66 10 85 2 19 7 58 10 85 15 118 77 550 96 660 11 66 22
131 24 145 2 14 6 39 9 55 3 17 12 68 20 115 8 47 20 110 26 140 6 30 13 67
15 81 38 211 153 741 212 974 13 55 27 108 29 119 7 35 124 470 154 576 17 58
33 112 35 121 2 9 13 47 25 85 12 38 23 76 25 84 5 20 87 276 137 425 51 150
144 409 164 454 8 18 13 35 11 37 -2 2 -21 -11 -43 -28z m-1061 -5513 c-3 -9
-8 -14 -10 -11 -3 3 -2 9 2 15 9 16 15 13 8 -4z"/>
</g>
</svg>
